<?xml version="1.0" encoding="utf-8"?>
<!-- Generator: Adobe Illustrator 27.5.0, SVG Export Plug-In . SVG Version: 6.00 Build 0)  -->
<svg version="1.1" xmlns="http://www.w3.org/2000/svg" xmlns:xlink="http://www.w3.org/1999/xlink" x="0px" y="0px"
	 viewBox="0 0 500 500" style="enable-background:new 0 0 500 500;" xml:space="preserve">
<g id="BACKGROUND">
	<g>
		<rect style="fill:#FFFFFF;" width="500" height="500"/>
		<g>
			<g>
				<path style="opacity:0.3;fill:#E3EDFC;" d="M0,92.706c0,0,41.267,18.632,65.957-19.279
					c24.691-37.911,39.056-54.971,105.874-34.12C238.65,60.157,265.603,0,265.603,0H0V92.706z"/>
				<path style="opacity:0.6;fill:#E3EDFC;" d="M0,73.356c0,0,38.058,14.743,60.829-15.255C83.6,28.103,96.848,14.604,158.47,31.103
					C220.093,47.602,244.95,0,244.95,0H0V73.356z"/>
			</g>
			<g>
				<path style="opacity:0.3;fill:#E3EDFC;" d="M500,433.589c0,0-48.598-13.348-77.674,13.811
					c-29.078,27.158-45.994,39.379-124.683,24.441C218.956,456.906,187.215,500,187.215,500H500V433.589z"/>
				<path style="opacity:0.6;fill:#E3EDFC;" d="M500,447.45c0,0-44.818-10.563-71.634,10.929
					c-26.817,21.489-42.418,31.159-114.987,19.34C240.81,465.899,211.537,500,211.537,500H500V447.45z"/>
			</g>
		</g>
	</g>
</g>
<g id="OBJECTS">
	<g>
		<g>
			<path style="fill:#E3EDFC;" d="M427.2,410.45H65.607l-0.293-0.349c-0.166-0.198-16.421-20.006-0.056-43.573
				c16.317-23.494,19.507-32.847,10.866-53.865c-1.505-3.658-3.417-7.618-5.44-11.809c-10.18-21.088-22.849-47.333,0.39-67.552
				c1.851-1.611,3.654-3.173,5.414-4.696c23.721-20.545,39.393-34.116,45.392-58.34c2.457-9.917,7.815-24.109,19.395-35.4
				c10.914-10.641,24.597-16.037,40.673-16.037c12.513,0,26.376,3.356,41.205,9.976c43.787,19.543,59.256,25.225,77.389,25.225
				c6.032,0,12.457-0.596,20.876-1.438c3.371-0.337,6.826-0.508,10.267-0.508c22.045,0,41.169,6.765,52.469,18.561
				c8.949,9.341,13.164,21.628,12.525,36.519c-0.383,8.96-0.993,16.554-1.53,23.254c-2.183,27.215-2.998,37.398,17.317,54.943
				c29.452,25.438,48.864,71.536,15.025,124.637L427.2,410.45z M66.54,408.491h359.585c32.768-51.855,13.807-96.818-14.94-121.647
				c-21.068-18.194-20.168-29.434-17.991-56.583c0.536-6.683,1.143-14.257,1.526-23.183c0.615-14.334-3.417-26.137-11.982-35.078
				c-10.934-11.412-29.541-17.956-51.054-17.956c-3.376,0-6.765,0.168-10.072,0.499c-8.476,0.847-14.947,1.447-21.07,1.447
				c-18.496,0-34.106-5.72-78.188-25.395c-14.577-6.506-28.171-9.805-40.406-9.805c-10.743,0-46.687,3.602-58.165,49.947
				c-6.149,24.827-22.007,38.562-46.011,59.351c-1.758,1.521-3.561,3.084-5.411,4.694c-22.109,19.236-9.8,44.734,0.09,65.221
				c2.037,4.218,3.961,8.203,5.487,11.917c9.434,22.947,4.743,32.96-11.068,55.727C52.516,388.316,64.528,405.827,66.54,408.491z"/>
		</g>
		<path style="fill:#E3EDFC;" d="M73.138,409.471c0,0-15.511-18.429,0-40.768c15.513-22.337,19.236-31.579,10.549-52.706
			c-8.687-21.13-31.319-52.464-5.112-75.268c26.208-22.804,42.897-35.81,49.165-61.117c8.184-33.043,37.724-65.307,96.113-39.247
			c58.389,26.061,63.973,26.06,94.997,22.958c31.024-3.102,73.218,8.088,71.356,51.511c-1.862,43.423-9.308,54.536,15.512,75.973
			c24.82,21.435,48.398,65.116,14.271,118.664H73.138z"/>
	</g>
	<g>
		<g>
			<path style="fill:#814C4A;" d="M208.782,218.834c0,0-14.939,92.231,42.132,92.231c57.07,0,43.725-95.823,43.725-95.823
				l-84.104,3.593"/>
			<g style="opacity:0.2;">
				<g>
					<path style="fill:#B76A6A;" d="M214.277,231.828c0,0-0.008,1.003-0.023,2.758c-0.025,1.751,0.044,4.254,0.138,7.246
						c0.105,2.993,0.303,6.477,0.638,10.191c0.154,1.858,0.4,3.77,0.633,5.711c0.26,1.936,0.545,3.9,0.923,5.847
						c0.332,1.953,0.756,3.89,1.219,5.782c0.223,0.948,0.502,1.872,0.732,2.797c0.257,0.922,0.545,1.817,0.808,2.705
						c0.304,0.876,0.602,1.736,0.894,2.578c0.324,0.829,0.624,1.65,0.948,2.434c0.344,0.777,0.68,1.531,1.003,2.263
						c0.354,0.716,0.696,1.41,1.024,2.074c0.728,1.291,1.38,2.49,2.053,3.497c0.618,1.046,1.304,1.853,1.803,2.571
						c1.093,1.355,1.741,2.133,1.741,2.133s-0.186-0.169-0.535-0.484c-0.339-0.324-0.884-0.761-1.494-1.397
						c-0.577-0.663-1.366-1.408-2.106-2.395c-0.375-0.486-0.816-0.982-1.208-1.552c-0.39-0.574-0.8-1.179-1.227-1.81
						c-0.39-0.651-0.796-1.335-1.216-2.041c-0.397-0.718-0.768-1.48-1.171-2.256c-0.378-0.787-0.734-1.61-1.117-2.443
						c-0.356-0.845-0.677-1.724-1.023-2.609c-0.624-1.797-1.255-3.662-1.742-5.599c-0.496-1.933-0.955-3.906-1.312-5.897
						c-0.363-1.993-0.632-3.997-0.874-5.971c-0.228-1.974-0.368-3.927-0.473-5.814c-0.117-1.888-0.141-3.716-0.148-5.448
						c-0.012-1.73,0.038-3.365,0.105-4.874c0.129-3.017,0.412-5.519,0.604-7.266C214.088,232.816,214.277,231.828,214.277,231.828z"
						/>
					<path style="fill:#B76A6A;" d="M221.319,231.828c0,0,0.062,0.933,0.167,2.564c0.058,0.813,0.128,1.802,0.209,2.935
						c0.091,1.13,0.192,2.406,0.303,3.797c0.132,1.389,0.274,2.894,0.424,4.483c0.16,1.59,0.34,3.261,0.549,4.988
						c0.175,1.732,0.456,3.505,0.693,5.314c0.21,1.813,0.574,3.631,0.855,5.461c0.306,1.826,0.677,3.637,1.013,5.427
						c0.438,1.767,0.766,3.53,1.197,5.21c0.482,1.661,0.853,3.299,1.322,4.817c0.488,1.513,0.95,2.943,1.377,4.264
						c0.501,1.295,0.96,2.483,1.367,3.536c0.101,0.266,0.2,0.521,0.293,0.767c0.114,0.24,0.223,0.468,0.327,0.689
						c0.208,0.443,0.399,0.851,0.571,1.218c0.68,1.489,1.068,2.34,1.068,2.34s-0.513-0.781-1.41-2.151
						c-0.221-0.347-0.467-0.729-0.734-1.147c-0.132-0.209-0.27-0.428-0.415-0.653c-0.121-0.238-0.248-0.484-0.378-0.739
						c-0.521-1.016-1.111-2.169-1.734-3.437c-0.562-1.293-1.125-2.714-1.72-4.22c-0.571-1.515-1.062-3.148-1.6-4.83
						c-0.487-1.693-0.935-3.461-1.381-5.258c-0.363-1.813-0.766-3.651-1.095-5.5c-0.263-1.859-0.609-3.708-0.799-5.544
						c-0.233-1.832-0.406-3.642-0.533-5.396c-0.164-1.749-0.225-3.448-0.291-5.057c-0.089-1.607-0.067-3.131-0.089-4.534
						C220.879,235.553,221.32,231.828,221.319,231.828z"/>
					<path style="fill:#B76A6A;" d="M232.077,234.359c0,0,0.199,3.47,0.495,8.674c0.15,2.594,0.325,5.621,0.512,8.863
						c0.107,1.618,0.219,3.289,0.332,4.989c0.117,1.698,0.245,3.42,0.407,5.142c0.135,1.721,0.292,3.44,0.478,5.128
						c0.192,1.685,0.361,3.349,0.58,4.949c0.222,1.6,0.445,3.143,0.686,4.605c0.259,1.454,0.521,2.826,0.79,4.091
						c0.294,1.255,0.578,2.401,0.868,3.411c0.315,0.998,0.573,1.882,0.861,2.577c0.258,0.713,0.5,1.256,0.673,1.625
						c0.167,0.372,0.258,0.57,0.258,0.57s-0.123-0.18-0.351-0.518c-0.23-0.339-0.583-0.831-0.934-1.513
						c-0.39-0.664-0.783-1.508-1.214-2.49c-0.2-0.497-0.412-1.025-0.635-1.581c-0.195-0.568-0.399-1.165-0.613-1.788
						c-0.19-0.631-0.389-1.286-0.593-1.966c-0.176-0.686-0.357-1.397-0.544-2.126c-0.342-1.467-0.685-3.017-0.958-4.634
						c-0.271-1.616-0.56-3.288-0.754-4.996c-0.21-1.707-0.395-3.443-0.55-5.181c-0.14-1.738-0.247-3.48-0.341-5.193
						c-0.098-1.713-0.127-3.402-0.167-5.034c-0.058-3.265-0.014-6.313,0.089-8.922C231.639,237.823,232.077,234.359,232.077,234.359
						z"/>
				</g>
				<g>
					<path style="fill:#B76A6A;" d="M287.548,231.828c0,0,0.008,1.003,0.022,2.758c0.025,1.751-0.044,4.254-0.137,7.246
						c-0.107,2.993-0.304,6.477-0.639,10.191c-0.154,1.858-0.399,3.77-0.632,5.711c-0.261,1.936-0.547,3.9-0.925,5.847
						c-0.332,1.953-0.756,3.89-1.219,5.782c-0.223,0.948-0.502,1.872-0.732,2.797c-0.257,0.922-0.544,1.817-0.809,2.705
						c-0.304,0.876-0.601,1.736-0.893,2.578c-0.323,0.829-0.624,1.65-0.947,2.434c-0.345,0.777-0.681,1.531-1.005,2.263
						c-0.353,0.716-0.694,1.41-1.021,2.074c-0.729,1.291-1.381,2.49-2.054,3.497c-0.618,1.046-1.305,1.853-1.803,2.571
						c-1.093,1.355-1.741,2.133-1.741,2.133s0.188-0.169,0.536-0.484c0.338-0.324,0.884-0.761,1.493-1.397
						c0.577-0.663,1.365-1.408,2.105-2.395c0.375-0.486,0.816-0.982,1.208-1.552c0.391-0.574,0.8-1.179,1.228-1.81
						c0.389-0.651,0.796-1.335,1.217-2.041c0.396-0.718,0.768-1.48,1.169-2.256c0.379-0.787,0.734-1.61,1.117-2.443
						c0.355-0.845,0.677-1.724,1.024-2.609c0.623-1.797,1.256-3.662,1.741-5.599c0.496-1.933,0.954-3.906,1.313-5.897
						c0.362-1.993,0.632-3.997,0.872-5.971c0.23-1.974,0.369-3.927,0.476-5.814c0.117-1.888,0.14-3.716,0.146-5.448
						c0.013-1.73-0.038-3.365-0.106-4.874c-0.127-3.017-0.412-5.519-0.603-7.266C287.736,232.816,287.548,231.828,287.548,231.828z"
						/>
					<path style="fill:#B76A6A;" d="M280.506,231.828c0,0-0.062,0.933-0.167,2.564c-0.058,0.813-0.128,1.802-0.208,2.935
						c-0.091,1.13-0.193,2.406-0.305,3.797c-0.13,1.389-0.273,2.894-0.424,4.483c-0.159,1.59-0.34,3.261-0.548,4.988
						c-0.177,1.732-0.456,3.505-0.694,5.314c-0.209,1.813-0.572,3.631-0.855,5.461c-0.307,1.826-0.676,3.637-1.014,5.427
						c-0.436,1.767-0.766,3.53-1.196,5.21c-0.482,1.661-0.854,3.299-1.322,4.817c-0.488,1.513-0.951,2.943-1.376,4.264
						c-0.501,1.295-0.961,2.483-1.367,3.536c-0.103,0.266-0.199,0.521-0.295,0.767c-0.113,0.24-0.222,0.468-0.326,0.689
						c-0.208,0.443-0.399,0.851-0.571,1.218c-0.68,1.489-1.067,2.34-1.067,2.34s0.513-0.781,1.408-2.151
						c0.222-0.347,0.469-0.729,0.734-1.147c0.134-0.209,0.272-0.428,0.415-0.653c0.121-0.238,0.247-0.484,0.377-0.739
						c0.523-1.016,1.112-2.169,1.734-3.437c0.563-1.293,1.125-2.714,1.721-4.22c0.571-1.515,1.063-3.148,1.601-4.83
						c0.486-1.693,0.935-3.461,1.38-5.258c0.364-1.813,0.766-3.651,1.095-5.5c0.265-1.859,0.609-3.708,0.801-5.544
						c0.231-1.832,0.405-3.642,0.531-5.396c0.165-1.749,0.225-3.448,0.291-5.057c0.088-1.607,0.067-3.131,0.088-4.534
						C280.945,235.553,280.506,231.828,280.506,231.828z"/>
					<path style="fill:#B76A6A;" d="M269.749,234.359c0,0-0.2,3.47-0.496,8.674c-0.15,2.594-0.325,5.621-0.512,8.863
						c-0.107,1.618-0.22,3.289-0.332,4.989c-0.117,1.698-0.246,3.42-0.408,5.142c-0.133,1.721-0.291,3.44-0.477,5.128
						c-0.191,1.685-0.361,3.349-0.579,4.949c-0.224,1.6-0.446,3.143-0.686,4.605c-0.26,1.454-0.521,2.826-0.791,4.091
						c-0.293,1.255-0.577,2.401-0.868,3.411c-0.315,0.998-0.573,1.882-0.859,2.577c-0.26,0.713-0.502,1.256-0.674,1.625
						c-0.169,0.372-0.259,0.57-0.259,0.57s0.123-0.18,0.351-0.518c0.228-0.339,0.583-0.831,0.934-1.513
						c0.39-0.664,0.782-1.508,1.214-2.49c0.2-0.497,0.411-1.025,0.636-1.581c0.194-0.568,0.399-1.165,0.613-1.788
						c0.189-0.631,0.388-1.286,0.594-1.966c0.174-0.686,0.356-1.397,0.543-2.126c0.343-1.467,0.685-3.017,0.959-4.634
						c0.271-1.616,0.559-3.288,0.753-4.996c0.211-1.707,0.396-3.443,0.55-5.181c0.141-1.738,0.247-3.48,0.343-5.193
						c0.098-1.713,0.127-3.402,0.164-5.034c0.06-3.265,0.016-6.313-0.088-8.922C270.185,237.823,269.748,234.359,269.749,234.359z"
						/>
				</g>
			</g>
		</g>
		<g>
			<g>
				<g>
					<g>
						<g>
							<g>
								<polygon style="fill:#FFAE8A;" points="260.796,251.33 250.914,251.33 241.024,251.33 232.578,285.639 250.914,311.065 
									269.247,283.537 								"/>
							</g>
							<path style="fill:#F79B77;" d="M260.796,251.33h-9.882h-9.89l-2.059,8.361c5.846,5.881,17.993,9.774,25.483,5.559
								L260.796,251.33z"/>
						</g>
						<g>
							<g>
								<g>
									<path style="fill:#FFAE8A;" d="M215.843,217.537c0,0-5.952-9.576-9.524-5.024c-3.575,4.552,2.181,15.527,9.524,13.657
										V217.537z"/>
									<path style="fill:#FFAE8A;" d="M285.987,217.537c0,0,5.947-9.576,9.515-5.024c3.574,4.552-2.182,15.527-9.515,13.657
										V217.537z"/>
								</g>
								<g>
									<path style="fill:#FFAE8A;" d="M251.035,165.495c-40.477,0-37.299,51.714-36.508,64.318
										c0.793,12.609,8.53,16.941,18.65,24.882c10.118,7.934,17.858,7.098,17.858,7.098s7.74,0.836,17.859-7.098
										c10.115-7.94,17.853-12.273,18.642-24.882C288.336,217.209,291.516,165.495,251.035,165.495z"/>
									<path style="opacity:0.5;fill:#FFBCA1;" d="M287.715,211.312c0.25,6.791-0.107,12.546-0.311,15.759
										c-0.789,12.609-8.525,16.941-18.643,24.88c-10.119,7.935-17.859,7.1-17.859,7.1s-7.741,0.835-17.858-7.1
										c-10.12-7.939-17.855-12.271-18.649-24.88c-0.04-0.643-0.088-1.392-0.134-2.227c0.081,1.996,0.186,3.688,0.267,4.97
										c0.793,12.609,8.53,16.941,18.65,24.882c10.118,7.934,17.858,7.098,17.858,7.098s7.74,0.836,17.859-7.098
										c10.115-7.94,17.853-12.273,18.642-24.882C287.767,226.177,288.194,219.28,287.715,211.312z"/>
								</g>
							</g>
						</g>
						<g>
							<path style="fill:#FAC849;" d="M302.179,278.206l-36.551-8.456c0,11.447-12.883,11.414-13.922,11.205v-0.015
								c0,0-0.014,0.002-0.037,0.006c-0.022-0.004-0.037-0.006-0.037-0.006v0.015c-1.04,0.209-15.142,0.242-15.142-11.205
								l-35.33,8.456l7.536,34.872c0,0-9.705,21.256,7.205,36.287l3.104,51.835h32.627h0.074h33.695l2.034-51.835
								c16.908-15.031,7.206-36.287,7.206-36.287L302.179,278.206z"/>
							<path style="fill:#F9B212;" d="M251.621,284.485v-0.019c0,0,0.018,0.004,0.048,0.01c0.029-0.006,0.047-0.01,0.047-0.01v0.019
								c1.304,0.263,17.373,0.301,17.569-13.89l-3.657-0.846c0,11.447-12.883,11.414-13.922,11.205v-0.015
								c0,0-0.014,0.002-0.037,0.006c-0.022-0.004-0.037-0.006-0.037-0.006v0.015c-1.04,0.209-15.142,0.242-15.142-11.205
								l-3.973,0.95C232.819,284.784,250.319,284.748,251.621,284.485z"/>
						</g>
						<g>
							<g>
								<g>
									<path style="fill:#AA6868;" d="M261.245,212.233c0,0-0.251-2.924,0.752-3.507c1.003-0.587,9.904-0.879,13.164,0
										c3.258,0.876,4.636,4.93,4.636,4.93s-1.177-1.686-6.197-2.208C269.917,211.067,262.497,212.818,261.245,212.233z"/>
									<path style="fill:#AA6868;" d="M240.826,212.233c0,0,0.251-2.924-0.752-3.507c-1-0.587-9.902-0.879-13.16,0
										c-3.261,0.876-4.643,4.93-4.643,4.93s1.18-1.686,6.198-2.208C232.156,211.067,239.574,212.818,240.826,212.233z"/>
								</g>
								<g>
									<path style="fill:#111B24;" d="M272.939,222.16c0,2.154-1.182,3.902-2.644,3.902c-1.459,0-2.643-1.748-2.643-3.902
										c0-2.153,1.184-3.898,2.643-3.898C271.758,218.262,272.939,220.007,272.939,222.16z"/>
									<path style="fill:#111B24;" d="M234.982,222.16c0,2.154-1.184,3.902-2.643,3.902c-1.459,0-2.642-1.748-2.642-3.902
										c0-2.153,1.183-3.898,2.642-3.898C233.798,218.262,234.982,220.007,234.982,222.16z"/>
								</g>
							</g>
							<g>
								<path style="fill:#F4472A;" d="M239.345,242.23c0,0,3.448,8.173,11.688,8.173c8.236,0,11.668-8.173,11.668-8.173
									S253.077,246.536,239.345,242.23z"/>
								<path style="fill:#FFFFFF;" d="M239.371,242.286c0,0,5.675,4.682,11.816,4.682s11.382-4.682,11.382-4.682
									S252.938,247.708,239.371,242.286z"/>
								<g>
									<g>
										<path style="fill:#F4472A;" d="M263.027,242.009c0,0-8.122-0.498-9.689,0c-1.551,0.493-1.637,0.536-2.149,0.536
											c-0.543,0-0.603-0.042-2.15-0.536c-1.571-0.498-9.693,0-9.693,0C248.903,246.779,261.266,243.801,263.027,242.009z"/>
									</g>
									<g>
										<path style="fill:#F4472A;" d="M237.436,241.384c8.109,4.186,19.174,4.47,27.2,0c0.181-0.101,0.004-0.334-0.182-0.231
											c-7.925,4.416-18.826,4.135-26.839,0C237.425,241.054,237.247,241.288,237.436,241.384L237.436,241.384z"/>
									</g>
								</g>
							</g>
							<path style="fill:#F89675;" d="M246.808,234.359c0,0,0.589,0.201,1.474,0.502c0.424,0.123,0.886,0.277,1.366,0.381
								c0.238,0.057,0.482,0.093,0.722,0.137c0.243,0.014,0.481,0.073,0.72,0.053c0.238,0.029,0.472-0.004,0.706-0.019
								c0.238,0.007,0.46-0.083,0.696-0.102c0.231-0.037,0.449-0.13,0.676-0.178c0.23-0.042,0.428-0.157,0.636-0.217
								c0.198-0.08,0.406-0.129,0.567-0.215c0.163-0.08,0.322-0.138,0.452-0.19c0.265-0.101,0.436-0.153,0.436-0.153
								s-0.045,0.159-0.16,0.428c-0.122,0.259-0.276,0.668-0.624,1.034c-0.172,0.185-0.328,0.429-0.578,0.595
								c-0.242,0.171-0.489,0.384-0.795,0.523c-0.312,0.12-0.625,0.305-0.986,0.349c-0.354,0.079-0.72,0.125-1.087,0.104
								c-0.37,0.002-0.723-0.078-1.068-0.159c-0.335-0.098-0.659-0.224-0.944-0.377c-0.581-0.302-1.032-0.695-1.364-1.068
								C246.979,235.042,246.808,234.359,246.808,234.359z"/>
						</g>
						<g style="opacity:0.1;">
							<path style="fill:#F4472A;" d="M233.392,232.861c0,3.578-3.296,6.479-7.363,6.479c-4.067,0-7.363-2.901-7.363-6.479
								c0-3.579,3.296-6.48,7.363-6.48C230.096,226.381,233.392,229.283,233.392,232.861z"/>
							<path style="fill:#F4472A;" d="M284.346,232.861c0,3.578-3.297,6.479-7.363,6.479s-7.362-2.901-7.362-6.479
								c0-3.579,3.296-6.48,7.362-6.48S284.346,229.283,284.346,232.861z"/>
						</g>
					</g>
					<path style="fill:#F4B425;" d="M302.004,278.206c0,0,13.061,4.482,19.324,19.375c6.263,14.892,21.579,59.774,19.086,69.749
						c-2.678,10.715-54.502,31.349-54.502,31.349l-7.838-13.536c0,0,32.061-22.443,37.403-26.717l-20.836-45.348L302.004,278.206z"
						/>
					<path style="fill:#F4B425;" d="M201.286,278.206c0,0-13.062,4.482-19.324,19.375c-6.264,14.892-21.581,59.774-19.088,69.749
						c2.678,10.715,54.503,31.349,54.503,31.349l7.838-13.536c0,0-32.06-22.443-37.404-26.717l20.884-45.348L201.286,278.206z"/>
					<path style="fill:#F4B425;" d="M269.057,348.674c-7.074-2.191-13.766-4.044-17.41-4.044v0.004v-0.004
						c-3.648,0-10.337,1.852-17.413,4.044c-7.078,2.191-12.132,1.014-12.132,1.014c5.024,3.112,11.975,3.547,18.871,1.011
						c6.085-2.241,10.674-2.189,10.674-2.189v-0.002v0.002c0,0,4.526,0.117,10.671,2.189c7.024,2.367,13.846,2.102,18.869-1.011
						C281.186,349.688,276.134,350.865,269.057,348.674z"/>
					<g>
						<path style="fill:#F4885D;" d="M295.435,214.412c-1.51-1.318-2.754-1.197-3.762-0.348c-0.119,0.059-0.213,0.146-0.272,0.253
							c-1.763,1.789-2.727,5.802-3.033,7.682c-0.125,0.773,1.056,1.105,1.182,0.326c0.21-1.293,0.963-5.093,2.337-6.787
							c0.806,1.466,0.887,3.217-0.027,4.714c-0.412,0.676,0.647,1.29,1.059,0.617c1.154-1.892,1.059-4.234-0.055-6.081
							c0.507-0.175,1.073-0.061,1.704,0.49C295.161,215.794,296.031,214.932,295.435,214.412z"/>
						<path style="fill:#F4885D;" d="M207.099,214.412c1.509-1.318,2.755-1.197,3.761-0.348c0.12,0.059,0.213,0.146,0.273,0.253
							c1.762,1.789,2.727,5.802,3.032,7.682c0.126,0.773-1.055,1.105-1.181,0.326c-0.209-1.293-0.963-5.093-2.336-6.787
							c-0.806,1.466-0.887,3.217,0.027,4.714c0.413,0.676-0.648,1.29-1.059,0.617c-1.154-1.892-1.058-4.234,0.055-6.081
							c-0.508-0.175-1.074-0.061-1.705,0.49C207.373,215.794,206.503,214.932,207.099,214.412z"/>
					</g>
				</g>
				<path style="fill:#FFAE8A;" d="M279.89,388.278c0,0-11.262-0.169-13.058,1.464c-1.796,1.634-7.186,11.596-6.368,12.576
					c0.816,0.98,13.555-1.308,16.819-2.613c3.267-1.306,7.59-2.82,7.59-2.82L279.89,388.278z"/>
				<path style="fill:#FFAE8A;" d="M222.947,388.278c0,0,11.261-0.169,13.057,1.464c1.797,1.634,7.186,11.596,6.369,12.576
					c-0.817,0.98-13.555-1.308-16.821-2.613c-3.265-1.306-7.588-2.82-7.588-2.82L222.947,388.278z"/>
			</g>
			<g>
				<path style="fill:#814C4A;" d="M214.182,215.241c0,0,19.452-10.031,24.783-29.139c0,0,15.92,26.924,48.92,29.139
					c0,0,3.17-4.399,6.735-3.541c0,0,2.264-51.726-43.708-51.726c-45.973,0-42.047,51.329-42.047,51.329
					S211.391,212.028,214.182,215.241z"/>
				<g style="opacity:0.2;">
					<path style="fill:#B76A6A;" d="M244.95,177.775c0,0,0.455,0.578,1.294,1.544c0.839,0.966,2.045,2.33,3.563,3.893
						c0.744,0.794,1.601,1.607,2.481,2.484c0.887,0.872,1.877,1.734,2.863,2.659c1.037,0.871,2.065,1.819,3.191,2.686
						c0.553,0.445,1.11,0.892,1.671,1.341c0.565,0.441,1.164,0.844,1.745,1.268c0.585,0.42,1.147,0.873,1.745,1.269
						c0.601,0.392,1.198,0.782,1.792,1.171c1.172,0.8,2.386,1.486,3.552,2.171c1.151,0.713,2.33,1.275,3.43,1.852
						c0.554,0.284,1.091,0.562,1.611,0.83c0.534,0.237,1.051,0.466,1.547,0.685c1,0.424,1.897,0.879,2.72,1.206
						c0.831,0.313,1.556,0.587,2.151,0.813c1.194,0.476,1.877,0.748,1.877,0.748s-0.721-0.123-1.983-0.374
						c-0.632-0.132-1.4-0.29-2.279-0.475c-0.874-0.209-1.833-0.537-2.892-0.868c-0.529-0.168-1.08-0.345-1.65-0.527
						c-0.559-0.211-1.122-0.464-1.71-0.708c-1.169-0.5-2.434-0.974-3.642-1.664c-1.222-0.658-2.531-1.267-3.74-2.089
						c-0.617-0.39-1.24-0.784-1.865-1.177c-0.621-0.399-1.21-0.852-1.816-1.279c-0.592-0.447-1.201-0.87-1.775-1.334
						c-0.568-0.471-1.136-0.939-1.696-1.405c-0.57-0.453-1.113-0.932-1.624-1.433c-0.52-0.491-1.032-0.976-1.536-1.452
						c-0.98-0.982-1.905-1.952-2.74-2.908c-0.838-0.954-1.611-1.872-2.276-2.76c-0.694-0.86-1.262-1.705-1.776-2.438
						c-0.504-0.743-0.921-1.405-1.252-1.959C245.266,178.44,244.95,177.775,244.95,177.775z"/>
					<path style="fill:#B76A6A;" d="M249.686,170.916c0,0,1.922,1.728,4.857,4.188c0.738,0.61,1.537,1.271,2.382,1.97
						c0.853,0.685,1.753,1.407,2.686,2.154c1.896,1.446,3.892,3.021,5.983,4.461l1.542,1.115c0.525,0.35,1.049,0.7,1.567,1.046
						c1.035,0.701,2.059,1.381,3.071,2.008c1,0.648,1.982,1.246,2.925,1.8c0.939,0.562,1.822,1.102,2.666,1.55
						c0.834,0.47,1.601,0.902,2.279,1.285c0.693,0.357,1.298,0.67,1.796,0.927c0.993,0.527,1.559,0.848,1.559,0.848
						s-0.621-0.165-1.705-0.487c-0.542-0.167-1.197-0.37-1.952-0.604c-0.739-0.268-1.567-0.592-2.468-0.956
						c-0.449-0.186-0.927-0.362-1.403-0.575c-0.473-0.226-0.961-0.46-1.463-0.7c-1.006-0.478-2.067-0.985-3.113-1.604
						c-1.059-0.596-2.167-1.193-3.225-1.908c-0.536-0.344-1.077-0.692-1.621-1.041l-1.593-1.109
						c-1.061-0.746-2.076-1.549-3.084-2.33c-1.019-0.768-1.935-1.628-2.867-2.405c-1.804-1.624-3.431-3.197-4.734-4.634
						c-1.326-1.412-2.345-2.671-3.039-3.563C250.04,171.457,249.686,170.916,249.686,170.916z"/>
					<path style="fill:#B76A6A;" d="M252.626,165.69c0,0,2.563,0.061,6.297,0.962c0.928,0.242,1.944,0.47,2.985,0.831
						c0.524,0.169,1.063,0.342,1.613,0.521c0.539,0.208,1.092,0.421,1.652,0.637c1.13,0.417,2.249,0.972,3.396,1.508
						c1.12,0.595,2.255,1.211,3.36,1.876l1.604,1.085l0.797,0.541l0.751,0.597c0.998,0.792,1.977,1.575,2.813,2.463
						c0.427,0.432,0.858,0.844,1.26,1.267c0.42,0.404,0.734,0.895,1.093,1.319c0.678,0.881,1.374,1.666,1.826,2.532
						c0.503,0.829,0.941,1.597,1.326,2.274c0.324,0.713,0.563,1.355,0.773,1.873c0.41,1.04,0.625,1.633,0.625,1.633
						s-0.367-0.53-0.971-1.456c-0.297-0.462-0.658-1.021-1.069-1.663c-0.484-0.595-1.027-1.264-1.594-1.999
						c-0.532-0.765-1.304-1.437-2.013-2.225c-0.696-0.802-1.568-1.515-2.428-2.287c-0.825-0.812-1.834-1.468-2.783-2.224
						l-0.724-0.557l-0.773-0.502l-1.55-1.009c-1.048-0.657-2.127-1.268-3.193-1.859c-1.103-0.523-2.133-1.158-3.209-1.608
						c-0.531-0.244-1.052-0.486-1.562-0.723c-0.52-0.219-1.024-0.436-1.518-0.646c-0.986-0.428-1.941-0.775-2.814-1.128
						c-1.764-0.652-3.251-1.178-4.307-1.51C253.238,165.864,252.626,165.69,252.626,165.69z"/>
					<path style="fill:#B76A6A;" d="M236.622,177.775c0,0-0.107,0.579-0.386,1.57c-0.282,0.988-0.72,2.396-1.392,4.028
						c-0.642,1.647-1.537,3.506-2.589,5.451c-0.571,0.946-1.084,1.974-1.748,2.929c-0.635,0.974-1.283,1.962-1.993,2.908
						c-0.357,0.471-0.705,0.949-1.07,1.409c-0.377,0.452-0.752,0.903-1.124,1.351c-0.718,0.919-1.542,1.719-2.304,2.523
						c-0.743,0.822-1.559,1.521-2.316,2.197c-0.379,0.336-0.747,0.664-1.104,0.981c-0.38,0.288-0.747,0.568-1.1,0.838
						c-0.705,0.535-1.348,1.023-1.942,1.424c-0.612,0.376-1.145,0.704-1.583,0.976c-0.883,0.526-1.393,0.811-1.393,0.811
						s0.417-0.42,1.16-1.124c0.372-0.345,0.826-0.764,1.345-1.245c0.497-0.501,1.058-1.068,1.67-1.686
						c0.305-0.306,0.624-0.624,0.953-0.954c0.314-0.345,0.639-0.7,0.974-1.066c0.67-0.728,1.382-1.487,2.068-2.318
						c0.705-0.814,1.419-1.665,2.114-2.557c0.353-0.441,0.708-0.886,1.064-1.332l1.014-1.389c0.707-0.905,1.357-1.851,1.993-2.787
						c0.653-0.923,1.243-1.869,1.845-2.765c0.556-0.924,1.139-1.793,1.643-2.648c0.498-0.856,0.994-1.656,1.418-2.413
						C235.566,179.876,236.622,177.775,236.622,177.775z"/>
					<path style="fill:#B76A6A;" d="M240.854,167.487c0,0-0.145,0.036-0.408,0.126c-0.267,0.077-0.645,0.238-1.128,0.41
						c-0.475,0.206-1.057,0.422-1.697,0.741c-0.65,0.289-1.351,0.682-2.116,1.095c-0.389,0.192-0.758,0.464-1.158,0.705
						c-0.393,0.254-0.818,0.481-1.213,0.786c-0.402,0.288-0.817,0.584-1.239,0.887c-0.404,0.326-0.817,0.66-1.235,0.998
						c-0.869,0.64-1.609,1.485-2.453,2.233c-0.787,0.809-1.554,1.667-2.295,2.54c-0.684,0.923-1.456,1.783-2.067,2.741
						c-0.583,0.971-1.287,1.853-1.805,2.808c-0.511,0.956-1.039,1.869-1.537,2.739c-0.429,0.906-0.835,1.765-1.21,2.556
						c-0.192,0.395-0.376,0.776-0.551,1.137c-0.165,0.367-0.296,0.725-0.433,1.056c-0.274,0.665-0.515,1.246-0.712,1.722
						c-0.407,0.957-0.66,1.502-0.66,1.502s0.092-0.585,0.287-1.61c0.103-0.513,0.229-1.134,0.373-1.849
						c0.081-0.355,0.15-0.74,0.252-1.137c0.125-0.388,0.257-0.798,0.394-1.225c0.279-0.854,0.571-1.788,0.931-2.758
						c0.422-0.942,0.864-1.944,1.355-2.964c0.221-0.523,0.544-1.005,0.832-1.512c0.294-0.506,0.598-1.013,0.914-1.519
						c0.624-1.018,1.417-1.949,2.129-2.933c0.803-0.913,1.633-1.808,2.486-2.649c0.901-0.792,1.765-1.598,2.715-2.237
						c0.468-0.326,0.907-0.677,1.376-0.962c0.475-0.274,0.939-0.544,1.392-0.805c0.902-0.52,1.815-0.911,2.648-1.26
						c0.847-0.332,1.629-0.605,2.344-0.784c0.7-0.22,1.34-0.308,1.852-0.415C240.256,167.486,240.854,167.487,240.854,167.487z"/>
				</g>
			</g>
		</g>
		<g>
			<g>
				<path style="fill:#5D93F4;" d="M211.9,204.566l-5.878-0.026c0.002-0.483,0.737-48.322,45.689-48.322
					c44.824,0,45.343,47.853,45.343,48.336h-5.879c-0.004-1.73-0.549-42.456-39.464-42.456c-16.41,0-28.075,7.07-34.672,21.016
					C212.006,193.748,211.901,204.46,211.9,204.566z"/>
			</g>
			<path style="opacity:0.5;fill:#1A65D3;" d="M211.9,204.566c0.001-0.106,0.106-10.818,5.139-21.453
				c6.597-13.946,18.263-21.016,34.672-21.016c38.915,0,39.46,40.727,39.464,42.456h3.086c-0.281-6.121-3.614-44.58-42.56-44.58
				c-39.084,0-42.578,38.501-42.883,44.58L211.9,204.566z"/>
		</g>
		<g>
			<g>
				<g>
					<path style="fill:#5D93F4;" d="M290.433,227.648c-5.37,4.593-10.741,9.187-16.11,13.781c-1.302,1.114,0.346,3.211,1.656,2.091
						c5.368-4.593,10.738-9.188,16.109-13.782C293.39,228.625,291.743,226.526,290.433,227.648L290.433,227.648z"/>
				</g>
				<g>
					<path style="fill:#1A65D3;" d="M280.473,238.33c0.989,1.245,0.782,3.056-0.463,4.046l-4.487,3.568
						c-1.245,0.989-3.056,0.781-4.045-0.462l0,0c-0.99-1.245-0.783-3.056,0.462-4.046l4.487-3.568
						C277.671,236.879,279.483,237.086,280.473,238.33L280.473,238.33z"/>
					<path style="opacity:0.5;fill:#0952AA;" d="M280.473,238.33c-0.676-0.849-1.733-1.201-2.733-1.034
						c0.157,0.13,0.305,0.273,0.435,0.437c0.99,1.245,0.784,3.056-0.462,4.046l-4.488,3.568c-0.394,0.314-0.847,0.493-1.311,0.573
						c1.025,0.837,2.529,0.883,3.609,0.025l4.487-3.568C281.255,241.386,281.462,239.575,280.473,238.33z"/>
				</g>
			</g>
			<g>
				<g>
					<g>
						<path style="fill:#1A65D3;" d="M211.174,201.456h-2.213v1.139c-2.26,2.39-3.864,8.312-3.864,15.26
							c0,6.946,1.604,12.87,3.864,15.26v1.137h2.213c3.356,0,6.077-7.342,6.077-16.397
							C217.25,208.798,214.53,201.456,211.174,201.456z"/>
						<path style="fill:#5D93F4;" d="M208.961,201.456c-0.545,0-1.071,0.212-1.574,0.576c-2.289,1.208-6.266,4.879-6.266,15.823
							c0,9.845,3.218,13.678,5.531,15.165c0.712,0.79,1.491,1.231,2.309,1.231c3.357,0,6.077-7.342,6.077-16.397
							C215.038,208.798,212.317,201.456,208.961,201.456z"/>
						<path style="opacity:0.2;fill:#814C4A;" d="M210.707,202.152c1.541,2.975,2.547,7.831,2.547,13.331
							c0,9.056-2.721,16.398-6.077,16.398c-0.818,0-1.596-0.443-2.308-1.232c-0.422-0.271-0.874-0.622-1.332-1.072
							c0.993,1.753,2.134,2.813,3.115,3.443c0.712,0.79,1.491,1.231,2.309,1.231c3.357,0,6.077-7.342,6.077-16.397
							C215.038,210.436,213.212,204.176,210.707,202.152z"/>
					</g>
					<path style="opacity:0.2;fill:#FFFFFF;" d="M206.837,205.862c0,0-0.068,0.298-0.187,0.818
						c-0.109,0.517-0.258,1.231-0.413,2.074c-0.068,0.427-0.162,0.869-0.231,1.351c-0.082,0.474-0.159,0.972-0.229,1.489
						c-0.089,0.509-0.13,1.052-0.214,1.585c-0.061,0.541-0.121,1.09-0.182,1.641c-0.05,0.555-0.1,1.108-0.15,1.654
						c-0.025,0.55-0.089,1.091-0.124,1.621c-0.025,0.529-0.063,1.045-0.107,1.54c-0.03,0.499-0.06,0.971-0.086,1.406
						c-0.092,0.886-0.112,1.633-0.179,2.171c-0.054,0.538-0.11,0.857-0.11,0.857s-0.134-0.265-0.324-0.751
						c-0.183-0.488-0.467-1.19-0.662-2.084c-0.102-0.445-0.216-0.932-0.301-1.456c-0.072-0.525-0.139-1.084-0.193-1.667
						c-0.044-0.582-0.051-1.193-0.055-1.811c-0.002-0.618,0.063-1.245,0.1-1.874c0.081-0.622,0.16-1.247,0.278-1.849
						c0.134-0.599,0.253-1.19,0.437-1.736c0.161-0.555,0.354-1.07,0.558-1.546c0.192-0.478,0.424-0.901,0.628-1.287
						c0.438-0.758,0.872-1.312,1.198-1.659C206.62,206.005,206.837,205.862,206.837,205.862z"/>
				</g>
				<g>
					<g>
						<path style="fill:#1A65D3;" d="M291.02,201.456h2.214v1.139c2.261,2.39,3.864,8.312,3.864,15.26
							c0,6.946-1.604,12.87-3.864,15.26v1.137h-2.214c-3.356,0-6.076-7.342-6.076-16.397
							C284.943,208.798,287.663,201.456,291.02,201.456z"/>
						<path style="fill:#5D93F4;" d="M293.233,201.456c0.545,0,1.07,0.212,1.573,0.576c2.288,1.208,6.266,4.879,6.266,15.823
							c0,9.845-3.218,13.678-5.53,15.165c-0.712,0.79-1.491,1.231-2.309,1.231c-3.356,0-6.077-7.342-6.077-16.397
							C287.156,208.798,289.877,201.456,293.233,201.456z"/>
						<path style="opacity:0.2;fill:#814C4A;" d="M291.486,202.152c-1.541,2.975-2.547,7.831-2.547,13.331
							c0,9.056,2.721,16.398,6.076,16.398c0.817,0,1.597-0.443,2.309-1.232c0.422-0.271,0.874-0.622,1.331-1.072
							c-0.991,1.753-2.134,2.813-3.113,3.443c-0.712,0.79-1.491,1.231-2.309,1.231c-3.356,0-6.077-7.342-6.077-16.397
							C287.156,210.436,288.981,204.176,291.486,202.152z"/>
					</g>
					<path style="opacity:0.2;fill:#FFFFFF;" d="M295.356,205.862c0,0,0.067,0.298,0.188,0.818c0.108,0.517,0.258,1.231,0.41,2.074
						c0.069,0.427,0.163,0.869,0.232,1.351c0.082,0.474,0.158,0.972,0.229,1.489c0.088,0.509,0.13,1.052,0.214,1.585
						c0.06,0.541,0.122,1.09,0.181,1.641c0.052,0.555,0.102,1.108,0.15,1.654c0.025,0.55,0.088,1.091,0.125,1.621
						c0.024,0.529,0.063,1.045,0.107,1.54c0.03,0.499,0.061,0.971,0.088,1.406c0.091,0.886,0.11,1.633,0.179,2.171
						c0.053,0.538,0.108,0.857,0.108,0.857s0.134-0.265,0.323-0.751c0.185-0.488,0.469-1.19,0.664-2.084
						c0.1-0.445,0.215-0.932,0.301-1.456c0.07-0.525,0.138-1.084,0.192-1.667c0.043-0.582,0.052-1.193,0.056-1.811
						c0.001-0.618-0.063-1.245-0.102-1.874c-0.08-0.622-0.159-1.247-0.276-1.849c-0.135-0.599-0.253-1.19-0.437-1.736
						c-0.162-0.555-0.355-1.07-0.558-1.546c-0.192-0.478-0.424-0.901-0.629-1.287c-0.438-0.758-0.873-1.312-1.198-1.659
						C295.574,206.005,295.356,205.862,295.356,205.862z"/>
				</g>
			</g>
		</g>
	</g>
	<g>
		<rect x="76.755" y="409.471" style="fill:#5D93F4;" width="349.78" height="17.173"/>
		<path style="fill:#2D80E2;" d="M442.461,414.142c0,2.569-2.203,4.671-4.898,4.671H65.728c-2.694,0-4.899-2.102-4.899-4.671
			s2.205-4.671,4.899-4.671h371.835C440.258,409.471,442.461,411.572,442.461,414.142z"/>
	</g>
	<path style="fill:#184A7C;" d="M338.197,405.337c0,2.283-1.854,4.134-4.137,4.134H169.228c-2.283,0-4.134-1.851-4.134-4.134l0,0
		c0-2.283,1.851-4.137,4.134-4.137H334.06C336.344,401.2,338.197,403.054,338.197,405.337L338.197,405.337z"/>
	<g>
		<g>
			<path style="fill:#1D5393;" d="M325.132,394.717c0,4.311-3.527,7.84-7.839,7.84H185.997c-4.312,0-7.839-3.528-7.839-7.84v-71.929
				c0-4.311,3.527-7.838,7.839-7.838h131.296c4.311,0,7.839,3.526,7.839,7.838V394.717z"/>
			<path style="fill:#5D93F4;" d="M257.443,358.144c0,3.202-2.597,5.799-5.797,5.799c-3.204,0-5.799-2.597-5.799-5.799
				c0-3.2,2.596-5.797,5.799-5.797C254.847,352.347,257.443,354.943,257.443,358.144z"/>
		</g>
		<path style="opacity:0.6;fill:#114068;" d="M317.293,314.95h-28.278c-1.654,53.225-74.093,78.291-106.378,86.833
			c1.021,0.489,2.158,0.773,3.36,0.773h131.296c4.311,0,7.839-3.528,7.839-7.84v-71.929
			C325.132,318.477,321.604,314.95,317.293,314.95z"/>
	</g>
	<g>
		<g>
			<path style="fill:#5D93F4;" d="M143.335,151.429h-43.88c-5.318,0-9.628,4.311-9.628,9.629v31.073c0,5.317,4.31,9.628,9.628,9.628
				h21.42l12.266,8.983v-8.983h10.194c5.317,0,9.629-4.311,9.629-9.628v-31.073C152.963,155.74,148.652,151.429,143.335,151.429z"/>
			<g>
				<path style="fill:#A9D0FF;" d="M122.977,163.699c0,0.813-0.658,1.471-1.471,1.471H99.04c-0.813,0-1.47-0.658-1.47-1.471l0,0
					c0-0.813,0.658-1.471,1.47-1.471h22.467C122.319,162.228,122.977,162.886,122.977,163.699L122.977,163.699z"/>
				<path style="fill:#A9D0FF;" d="M147.048,171.722c0,0.813-0.658,1.471-1.471,1.471H99.04c-0.813,0-1.47-0.658-1.47-1.471l0,0
					c0-0.813,0.658-1.471,1.47-1.471h46.538C146.39,170.251,147.048,170.91,147.048,171.722L147.048,171.722z"/>
				<path style="fill:#A9D0FF;" d="M147.048,179.746c0,0.813-0.658,1.47-1.471,1.47H99.04c-0.813,0-1.47-0.658-1.47-1.47l0,0
					c0-0.813,0.658-1.471,1.47-1.471h46.538C146.39,178.275,147.048,178.933,147.048,179.746L147.048,179.746z"/>
				<path style="fill:#A9D0FF;" d="M139.025,187.77c0,0.813-0.659,1.471-1.471,1.471H99.04c-0.813,0-1.47-0.658-1.47-1.471l0,0
					c0-0.813,0.658-1.471,1.47-1.471h38.514C138.366,186.299,139.025,186.957,139.025,187.77L139.025,187.77z"/>
			</g>
			<path style="opacity:0.1;fill:#114068;" d="M143.335,151.429h-0.788c0.403,25.973-19.893,41.939-35.422,50.33h13.749
				l12.266,8.003v-8.003h10.194c5.317,0,9.629-4.311,9.629-9.628v-31.073C152.963,155.74,148.652,151.429,143.335,151.429z"/>
		</g>
		<g>
			<g>
				<rect x="90.924" y="275.035" style="fill:#FAC849;" width="43.135" height="26.859"/>
				<polygon style="fill:#F4B425;" points="90.924,275.035 134.06,275.035 112.493,293.815 				"/>
				<g>
					<defs>
						<rect id="SVGID_1_" x="90.924" y="275.035" width="43.135" height="26.859"/>
					</defs>
					<clipPath id="SVGID_00000159437259212250619060000000212518215110425276_">
						<use xlink:href="#SVGID_1_"  style="overflow:visible;"/>
					</clipPath>
					<g style="clip-path:url(#SVGID_00000159437259212250619060000000212518215110425276_);">
						<g>
							<path style="fill:#F4B425;" d="M91.64,302.764c4.869-6.479,9.74-12.958,14.609-19.436c0.877-1.166-0.548-2.91-1.43-1.736
								c-4.87,6.479-9.74,12.956-14.609,19.434C89.332,302.193,90.758,303.935,91.64,302.764L91.64,302.764z"/>
						</g>
						<g>
							<path style="fill:#F4B425;" d="M134.447,301.025c-4.872-6.477-9.741-12.955-14.609-19.434
								c-0.882-1.174-2.31,0.57-1.431,1.736c4.871,6.478,9.741,12.957,14.61,19.436
								C133.898,303.938,135.325,302.193,134.447,301.025L134.447,301.025z"/>
						</g>
					</g>
				</g>
			</g>
			<path style="opacity:0.1;fill:#114068;" d="M105.964,301.895h28.095v-26.859h-12.74
				C123.796,288.402,115.079,296.842,105.964,301.895z"/>
		</g>
		<g>
			<g>
				<path style="fill:#FAC849;" d="M368.057,230.572h-38.728c-2.568,0-4.649,2.083-4.649,4.652v15.007
					c0,2.569,2.081,4.652,4.649,4.652h19.113l5.924,7.178v-7.178h13.691c2.569,0,4.65-2.083,4.65-4.652v-15.007
					C372.707,232.654,370.626,230.572,368.057,230.572z"/>
				<g>
					<path style="fill:#FFFFFF;" d="M339.077,242.291c0,1.468-1.189,2.659-2.658,2.659c-1.469,0-2.659-1.191-2.659-2.659
						c0-1.469,1.19-2.66,2.659-2.66C337.888,239.631,339.077,240.822,339.077,242.291z"/>
					<path style="fill:#FFFFFF;" d="M351.352,242.291c0,1.468-1.19,2.659-2.658,2.659c-1.47,0-2.659-1.191-2.659-2.659
						c0-1.469,1.189-2.66,2.659-2.66C350.161,239.631,351.352,240.822,351.352,242.291z"/>
					<path style="fill:#FFFFFF;" d="M363.625,242.291c0,1.468-1.19,2.659-2.658,2.659c-1.469,0-2.659-1.191-2.659-2.659
						c0-1.469,1.19-2.66,2.659-2.66C362.435,239.631,363.625,240.822,363.625,242.291z"/>
				</g>
			</g>
			<path style="opacity:0.1;fill:#114068;" d="M368.057,230.572h-5.688c0.843,13.678-12.59,20.769-23.998,24.311h10.071l5.924,7.178
				v-7.178h13.691c2.569,0,4.65-2.083,4.65-4.652v-15.007C372.707,232.654,370.626,230.572,368.057,230.572z"/>
		</g>
		<g>
			<g>
				<path style="fill:#5D93F4;" d="M364.315,150.895c-0.939-0.467-2.79-0.055-4.5,0.516c-0.511-1.758-1.206-3.437-2.073-5.01
					c1.606-0.807,3.201-1.821,3.555-2.807c0.847-2.374-3.641-6.862-3.641-6.862s-4.452-4.452-6.863-3.64
					c-0.993,0.333-2.009,1.932-2.815,3.543c-1.573-0.866-3.253-1.563-5.011-2.072c0.565-1.707,0.978-3.553,0.529-4.499
					c-1.08-2.278-7.427-2.278-7.427-2.278s-6.296,0-7.426,2.278c-0.466,0.939-0.055,2.79,0.516,4.499
					c-1.759,0.51-3.438,1.206-5.01,2.073c-0.807-1.605-1.821-3.201-2.807-3.553c-2.375-0.848-6.862,3.64-6.862,3.64
					s-4.451,4.452-3.64,6.863c0.333,0.994,1.932,2.01,3.543,2.816c-0.865,1.573-1.563,3.252-2.071,5.011
					c-1.707-0.566-3.555-0.977-4.501-0.529c-2.278,1.079-2.278,7.426-2.278,7.426s0,6.296,2.278,7.427
					c0.94,0.467,2.79,0.054,4.501-0.517c0.509,1.759,1.206,3.438,2.071,5.01c-1.604,0.807-3.201,1.821-3.553,2.808
					c-0.847,2.374,3.641,6.862,3.641,6.862s4.451,4.452,6.863,3.64c0.993-0.335,2.009-1.934,2.815-3.545
					c1.572,0.866,3.251,1.563,5.01,2.072c-0.565,1.707-0.978,3.553-0.528,4.5c1.078,2.279,7.426,2.279,7.426,2.279
					s6.296,0,7.427-2.279c0.466-0.94,0.053-2.789-0.517-4.5c1.759-0.51,3.437-1.206,5.01-2.072c0.807,1.605,1.819,3.2,2.807,3.553
					c2.375,0.848,6.862-3.641,6.862-3.641s4.451-4.452,3.64-6.862c-0.333-0.994-1.933-2.009-3.545-2.816
					c0.867-1.573,1.563-3.251,2.073-5.01c1.707,0.566,3.555,0.976,4.5,0.53c2.277-1.08,2.277-7.426,2.277-7.426
					S366.593,152.025,364.315,150.895z M336.064,169.767c-6.324,0-11.452-5.127-11.452-11.452c0-6.325,5.128-11.452,11.452-11.452
					c6.326,0,11.451,5.127,11.451,11.452C347.516,164.641,342.391,169.767,336.064,169.767z"/>
				<g style="opacity:0.5;">
					<path style="fill:#1A65D3;" d="M336.064,175.871c-9.681,0-17.556-7.875-17.556-17.556c0-9.68,7.875-17.556,17.556-17.556
						c9.68,0,17.556,7.876,17.556,17.556C353.62,167.996,345.744,175.871,336.064,175.871z M336.064,144.248
						c-7.757,0-14.067,6.311-14.067,14.068c0,7.757,6.31,14.068,14.067,14.068c7.756,0,14.066-6.311,14.066-14.068
						C350.131,150.559,343.82,144.248,336.064,144.248z"/>
				</g>
			</g>
			<path style="opacity:0.1;fill:#114068;" d="M321.336,183.54c0.993-0.335,2.009-1.934,2.815-3.545
				c1.572,0.866,3.251,1.563,5.01,2.072c-0.565,1.707-0.978,3.553-0.528,4.5c1.078,2.279,7.426,2.279,7.426,2.279
				s6.296,0,7.427-2.279c0.466-0.94,0.053-2.789-0.517-4.5c1.759-0.51,3.437-1.206,5.01-2.072c0.807,1.605,1.819,3.2,2.807,3.553
				c2.375,0.848,6.862-3.641,6.862-3.641s4.451-4.452,3.64-6.862c-0.333-0.994-1.933-2.009-3.545-2.816
				c0.867-1.573,1.563-3.251,2.073-5.01c1.707,0.566,3.555,0.976,4.5,0.53c2.277-1.08,2.277-7.426,2.277-7.426s0-6.297-2.277-7.427
				c-0.939-0.467-2.79-0.055-4.5,0.516c-0.511-1.758-1.206-3.437-2.073-5.01c1.606-0.807,3.201-1.821,3.555-2.807
				c0.847-2.374-3.641-6.862-3.641-6.862s-0.473-0.47-1.188-1.076c-1.959,7.167-5.391,13.378-9.655,18.74
				c0.447,1.224,0.703,2.54,0.703,3.919c0,6.325-5.125,11.452-11.451,11.452c-1.729,0-3.363-0.395-4.834-1.08
				c-6.103,4.22-12.413,7.458-17.966,9.868c0.668,0.8,1.208,1.344,1.208,1.344S318.924,184.351,321.336,183.54z"/>
		</g>
		<g>
			<g>
				<path style="fill:#FAC849;" d="M163.886,115.072c-0.477-0.235-1.412-0.027-2.278,0.262c-0.258-0.89-0.611-1.74-1.049-2.536
					c0.814-0.408,1.621-0.922,1.798-1.421c0.43-1.202-1.842-3.475-1.842-3.475s-2.254-2.254-3.475-1.843
					c-0.503,0.17-1.017,0.979-1.425,1.795c-0.796-0.438-1.646-0.791-2.537-1.049c0.286-0.864,0.494-1.799,0.267-2.278
					c-0.546-1.154-3.759-1.154-3.759-1.154s-3.188,0-3.761,1.154c-0.235,0.476-0.027,1.413,0.262,2.278
					c-0.891,0.259-1.741,0.611-2.537,1.05c-0.408-0.813-0.921-1.621-1.42-1.8c-1.203-0.429-3.475,1.843-3.475,1.843
					s-2.253,2.254-1.842,3.474c0.168,0.503,0.979,1.018,1.794,1.426c-0.439,0.796-0.791,1.646-1.049,2.536
					c-0.865-0.287-1.8-0.494-2.279-0.268c-1.153,0.546-1.153,3.76-1.153,3.76s0,3.188,1.153,3.761
					c0.476,0.235,1.412,0.027,2.279-0.262c0.258,0.89,0.61,1.74,1.049,2.537c-0.813,0.408-1.621,0.922-1.799,1.421
					c-0.429,1.202,1.843,3.474,1.843,3.474s2.254,2.254,3.475,1.843c0.503-0.17,1.019-0.979,1.426-1.795
					c0.796,0.438,1.646,0.791,2.536,1.049c-0.286,0.865-0.494,1.799-0.268,2.278c0.546,1.153,3.76,1.153,3.76,1.153
					s3.188,0,3.759-1.153c0.237-0.476,0.028-1.413-0.261-2.278c0.891-0.258,1.741-0.611,2.537-1.049
					c0.409,0.813,0.921,1.621,1.421,1.799c1.203,0.429,3.474-1.843,3.474-1.843s2.255-2.254,1.844-3.475
					c-0.169-0.503-0.979-1.018-1.794-1.425c0.439-0.796,0.792-1.647,1.049-2.537c0.864,0.286,1.799,0.495,2.278,0.268
					c1.153-0.546,1.153-3.76,1.153-3.76S165.039,115.646,163.886,115.072z M149.582,124.627c-3.202,0-5.799-2.595-5.799-5.798
					c0-3.202,2.597-5.798,5.799-5.798c3.203,0,5.797,2.596,5.797,5.798C155.379,122.032,152.785,124.627,149.582,124.627z"/>
				<g style="opacity:0.5;">
					<path style="fill:#F4B425;" d="M149.582,127.718c-4.9,0-8.888-3.987-8.888-8.888c0-4.9,3.988-8.888,8.888-8.888
						c4.901,0,8.888,3.987,8.888,8.888C158.47,123.731,154.483,127.718,149.582,127.718z M149.582,111.707
						c-3.928,0-7.122,3.195-7.122,7.122c0,3.927,3.194,7.123,7.122,7.123c3.926,0,7.123-3.196,7.123-7.123
						C156.705,114.902,153.509,111.707,149.582,111.707z"/>
				</g>
			</g>
			<path style="opacity:0.1;fill:#114068;" d="M142.125,131.601c0.503-0.17,1.019-0.979,1.426-1.795
				c0.796,0.438,1.646,0.791,2.536,1.049c-0.286,0.865-0.494,1.799-0.268,2.278c0.546,1.153,3.76,1.153,3.76,1.153
				s3.188,0,3.759-1.153c0.237-0.476,0.028-1.413-0.261-2.278c0.891-0.258,1.741-0.611,2.537-1.049
				c0.409,0.813,0.921,1.621,1.421,1.799c1.203,0.429,3.474-1.843,3.474-1.843s2.255-2.254,1.844-3.475
				c-0.169-0.503-0.979-1.018-1.794-1.425c0.439-0.796,0.792-1.647,1.049-2.537c0.864,0.286,1.799,0.495,2.278,0.268
				c1.153-0.546,1.153-3.76,1.153-3.76s0-3.188-1.153-3.761c-0.477-0.235-1.412-0.027-2.278,0.262
				c-0.258-0.89-0.611-1.74-1.049-2.536c0.814-0.408,1.621-0.922,1.798-1.421c0.43-1.202-1.842-3.475-1.842-3.475
				s-0.104-0.102-0.271-0.255c-1.446,3.188-3.329,6.039-5.486,8.581c0.396,0.783,0.623,1.666,0.623,2.603
				c0,3.203-2.594,5.798-5.797,5.798c-1.109,0-2.142-0.317-3.022-0.857c-2.837,2.078-5.769,3.814-8.568,5.25
				c0.36,0.438,0.658,0.737,0.658,0.737S140.904,132.012,142.125,131.601z"/>
		</g>
		<g>
			<g>
				<path style="fill:#FC8B3F;" d="M141.484,224.626h34.244c2.271,0,4.112,1.843,4.112,4.113v13.27c0,2.272-1.841,4.112-4.112,4.112
					h-16.899l-5.239,6.345v-6.345h-12.105c-2.271,0-4.112-1.84-4.112-4.112v-13.27C137.372,226.469,139.213,224.626,141.484,224.626
					z"/>
				<g>
					<path style="fill:#FFFFFF;" d="M157.981,230.998c-1.258-0.729-3.114,0.032-4.612,1.71c-1.496-1.677-3.353-2.439-4.611-1.71
						c-1.588,0.923-1.61,3.85-0.049,6.538c1.253,2.16,3.141,3.482,4.66,3.452c1.521,0.03,3.407-1.292,4.661-3.452
						C159.592,234.848,159.57,231.921,157.981,230.998z"/>
					
						<text transform="matrix(1 0 0 1 162.7695 240.9902)" style="fill:#FFFFFF; font-family:'Montserrat-ExtraBold'; font-size:12.3072px;">1</text>
				</g>
				<path style="opacity:0.1;fill:#114068;" d="M179.84,228.74c0-2.271-1.841-4.113-4.112-4.113h-7.033
					c0.525,12.033-10.699,18.311-20.567,21.496h5.462v6.345l5.239-6.345h16.899c2.271,0,4.112-1.84,4.112-4.112V228.74z"/>
			</g>
		</g>
		<g>
			<g>
				<path style="fill:#FC8B3F;" d="M178.449,124.614h34.243c2.271,0,4.113,1.841,4.113,4.112v13.271
					c0,2.271-1.842,4.112-4.113,4.112h-16.898l-5.239,6.346v-6.346h-12.105c-2.272,0-4.113-1.842-4.113-4.112v-13.271
					C174.335,126.455,176.177,124.614,178.449,124.614z"/>
				<g>
					
						<text transform="matrix(1 0 0 1 199.7334 140.583)" style="fill:#FFFFFF; font-family:'Montserrat-ExtraBold'; font-size:12.3072px;">1</text>
					<path style="fill:#FFFFFF;" d="M194.064,131.837h-6.975c-0.846,0-1.531,0.686-1.531,1.531v4.94
						c0,0.846,0.686,1.531,1.531,1.531h3.405l1.95,2.362v-2.362h1.62c0.846,0,1.531-0.685,1.531-1.531v-4.94
						C195.596,132.523,194.911,131.837,194.064,131.837z"/>
				</g>
				<path style="opacity:0.1;fill:#114068;" d="M216.805,128.726c0-2.271-1.842-4.112-4.113-4.112h-7.032
					c0.523,12.033-10.699,18.311-20.567,21.495h5.462v6.346l5.239-6.346h16.898c2.271,0,4.113-1.842,4.113-4.112V128.726z"/>
			</g>
		</g>
		<g>
			
				<ellipse transform="matrix(0.025 -0.9997 0.9997 0.025 199.8508 596.9755)" style="fill:#FC8B3F;" cx="405.974" cy="196.031" rx="25.213" ry="25.214"/>
			<path style="fill:#FFFFFF;" d="M418.52,185.251c-4.69,4.229-9.382,8.459-14.075,12.689c-2.988-1.497-5.977-2.993-8.962-4.491
				c-1.825-0.914-3.433,1.824-1.603,2.74c3.34,1.674,6.682,3.348,10.022,5.02c0.67,0.335,1.362,0.257,1.922-0.248
				c4.98-4.487,9.961-8.977,14.939-13.466C422.287,186.123,420.036,183.886,418.52,185.251z"/>
			<g>
				<g>
					<g>
						<circle style="fill:#F46C0F;" cx="405.974" cy="175.057" r="1.309"/>
						<path style="fill:#F46C0F;" d="M407.282,217.286c0,0.723-0.587,1.309-1.309,1.309c-0.724,0-1.309-0.586-1.309-1.309
							c0-0.723,0.585-1.308,1.309-1.308C406.695,215.979,407.282,216.564,407.282,217.286z"/>
					</g>
					<g>
						<path style="fill:#F46C0F;" d="M427.088,197.481c-0.723,0-1.308-0.587-1.308-1.31c0-0.722,0.585-1.308,1.308-1.308
							c0.725,0,1.309,0.586,1.309,1.308C428.396,196.894,427.813,197.481,427.088,197.481z"/>
						<path style="fill:#F46C0F;" d="M384.858,197.481c-0.724,0-1.308-0.587-1.308-1.31c0-0.722,0.584-1.308,1.308-1.308
							c0.723,0,1.307,0.586,1.307,1.308C386.165,196.894,385.581,197.481,384.858,197.481z"/>
					</g>
				</g>
				<g>
					<g>
						<path style="fill:#F46C0F;" d="M417.764,178.606c-0.364,0.624-1.167,0.833-1.791,0.467c-0.625-0.363-0.834-1.165-0.469-1.789
							c0.366-0.624,1.166-0.832,1.791-0.469C417.918,177.18,418.128,177.983,417.764,178.606z"/>
						<path style="fill:#F46C0F;" d="M396.443,215.06c-0.366,0.624-1.167,0.833-1.791,0.468c-0.623-0.366-0.833-1.167-0.469-1.79
							c0.364-0.625,1.167-0.834,1.791-0.468C396.6,213.633,396.809,214.435,396.443,215.06z"/>
					</g>
					<g>
						<path style="fill:#F46C0F;" d="M423.536,207.961c-0.622-0.365-0.832-1.166-0.467-1.79c0.365-0.624,1.166-0.833,1.789-0.469
							c0.627,0.365,0.835,1.167,0.47,1.79C424.964,208.116,424.163,208.327,423.536,207.961z"/>
						<path style="fill:#F46C0F;" d="M387.087,186.642c-0.625-0.366-0.835-1.167-0.471-1.79c0.365-0.624,1.167-0.834,1.79-0.47
							c0.624,0.365,0.835,1.167,0.47,1.79C388.512,186.796,387.709,187.007,387.087,186.642z"/>
					</g>
				</g>
				<g>
					<g>
						<path style="fill:#F46C0F;" d="M394.184,178.606c0.365,0.624,1.167,0.833,1.791,0.467c0.625-0.363,0.834-1.165,0.47-1.789
							c-0.367-0.624-1.168-0.832-1.792-0.469C394.029,177.18,393.819,177.983,394.184,178.606z"/>
						<path style="fill:#F46C0F;" d="M415.505,215.06c0.365,0.624,1.165,0.833,1.79,0.468c0.623-0.366,0.833-1.167,0.469-1.79
							c-0.364-0.625-1.167-0.834-1.791-0.468C415.348,213.633,415.139,214.435,415.505,215.06z"/>
					</g>
					<g>
						<path style="fill:#F46C0F;" d="M388.409,207.961c0.623-0.365,0.832-1.166,0.467-1.79c-0.364-0.624-1.165-0.833-1.788-0.469
							c-0.626,0.365-0.836,1.167-0.471,1.79C386.982,208.116,387.783,208.327,388.409,207.961z"/>
						<path style="fill:#F46C0F;" d="M424.861,186.642c0.624-0.366,0.832-1.167,0.469-1.79c-0.365-0.624-1.167-0.834-1.79-0.47
							c-0.625,0.365-0.834,1.167-0.471,1.79C423.435,186.796,424.236,187.007,424.861,186.642z"/>
					</g>
				</g>
			</g>
		</g>
		<g>
			
				<text transform="matrix(1 0 0 1 239.8667 113.1416)" style="fill:#B6CDEF; font-family:'Montserrat-ExtraBold'; font-size:12.1562px;">24/7</text>
			<path style="fill:#B6CDEF;" d="M275.926,108.758c-0.214,9.835-6.301,18.195-15.633,21.343
				c-9.333,3.152-19.607-0.849-25.196-8.679c-5.724-8.017-4.917-19.075,1.01-26.688c6.461-8.299,18.067-10.387,27.377-6.025
				c-2.46,0.877-4.918,1.755-7.376,2.632c-1.136,0.406-0.646,2.228,0.502,1.818c3.015-1.076,6.028-2.154,9.044-3.229
				c0.492-0.176,0.788-0.632,0.658-1.158c-0.777-3.128-1.555-6.256-2.33-9.384c-0.293-1.179-2.11-0.678-1.816,0.502
				c0.574,2.315,1.148,4.63,1.724,6.945c-10.211-4.513-21.835-2.023-29.114,6.569c-6.926,8.175-7.047,20.18-1.307,28.971
				c5.854,8.964,17.266,12.467,27.326,9.544c10.2-2.963,16.79-12.805,17.016-23.159
				C277.837,107.541,275.953,107.545,275.926,108.758z"/>
		</g>
	</g>
	<g>
		<g>
			<g>
				<path style="fill:#B6CDEF;" d="M388.031,343.097c-4.938-4.185-12.253,7.169-13.722,13.004
					c-0.786-4.642-1.842-9.323-3.202-13.917c2.761,0.141,12.588-11.339,7.368-14.182c-4.21-2.294-7.829,6.684-8.225,11.422
					c-1.25-3.833-2.72-7.584-4.433-11.178c3.72-1.023,12.368-19.418,4.534-21.273c-5.947-1.408-7.68,9.967-6.915,16.659
					c-1.784-3.18-3.783-6.191-6.01-8.974c2.993-2.323,7.052-18.216,0.331-18.59c-5.23-0.292-5.02,9.494-3.387,15.093
					c-1.297-1.37-2.657-2.67-4.091-3.886c1.233-3.881-15.451-21.578-20.752-13.818c-5.046,7.391,15.164,15.995,19.841,14.589
					c1.774,1.492,3.434,3.119,4.995,4.851c-5.048-2.153-15.678-3.367-15.708,2.017c-0.036,6.559,15.773,3.503,18.038,0.73
					c2.396,3.029,4.51,6.338,6.378,9.833c-5.31-3.486-17.2-7.044-18.33-0.909c-1.351,7.326,16.554,7.212,20.215,4.659
					c1.42,3.032,2.658,6.183,3.746,9.392c-3.519-3.286-9.964-6.818-11.749-3.104c-2.29,4.759,9.498,8.069,13.071,7.293
					c1.096,3.747,1.985,7.549,2.692,11.332c-3.625-5.153-10.969-11.427-14.251-7.136c-4.312,5.638,10.813,13.267,15.179,12.795
					c0.689,4.88,1.087,9.667,1.225,14.188c0.024,0.788,1.25,0.792,1.226,0c-0.144-4.691-0.563-9.642-1.287-14.683
					C378.277,360.253,393.969,348.133,388.031,343.097z"/>
				<path style="fill:#B6CDEF;" d="M418.543,301.902c1.615-2.608,3.324-5.187,5.127-7.693c4.602,0.673,22.935-12.445,16.296-18.61
					c-6.781-6.294-18.858,13.921-17.262,17.896c-1.242,1.74-2.431,3.518-3.587,5.31c0.934-5.552,0.32-13.446-4.297-12.957
					c-6.459,0.683-1.83,15.761,1.18,17.945c-0.713,1.185-1.412,2.369-2.098,3.552c-1.453,2.502-2.82,5.049-4.132,7.622
					c0.779-6.173-0.776-16.962-6.352-15.654c-7.382,1.731,0.975,19.335,4.325,19.778c-2.162,4.552-4.111,9.197-5.852,13.921
					c0.099-7.619-3.549-21.107-10.285-18.564c-8.822,3.327,4.474,23.791,8.548,23.502c-1.563,4.663-2.927,9.39-4.102,14.168
					c-1.042-5.118-4.605-12.434-8.541-10.222c-5.19,2.918,4.107,13.895,7.491,14.739c-2.004,9.127-3.339,18.406-4.002,27.723
					c-0.055,0.781,1.153,0.988,1.21,0.2c0.665-9.368,2.018-18.649,4.04-27.764c3.184,1.364,17.815-2.639,15.049-8.197
					c-2.288-4.596-10.898,0.938-14.284,4.895c1.227-5.08,2.672-10.105,4.333-15.055c4.93,2.473,26.462-0.19,23.696-8.817
					c-2.315-7.211-16.026-1.149-21.956,3.883c1.727-4.677,3.653-9.281,5.785-13.808c3.988,2.415,21.101,2.45,19.804-4.677
					c-1.088-5.967-12.486-2.689-17.86,0.686c1.174-2.331,2.385-4.644,3.671-6.927c0.825-1.464,1.686-2.935,2.561-4.405
					c2.322,2.764,18.988,5.181,18.613-1.623C435.339,296.879,423.17,299.221,418.543,301.902z"/>
			</g>
			<g>
				<g>
					<path style="fill:#FC8B3F;" d="M407.443,405.276c-0.31,2.306-2.466,4.194-4.794,4.194h-36.196
						c-2.328,0-4.443-1.893-4.701-4.205l-4.35-38.942c-0.259-2.313,1.434-4.205,3.762-4.205h47.833c2.327,0,3.977,1.887,3.67,4.195
						L407.443,405.276z"/>
					<path style="opacity:0.1;fill:#114068;" d="M408.997,362.118h-8.691c1.308,13.547-1.483,33.768-24.821,47.353h27.165
						c2.328,0,4.484-1.889,4.794-4.194l5.224-38.963C412.975,364.005,411.324,362.118,408.997,362.118z"/>
				</g>
				<path style="fill:#F46C0F;" d="M418.234,365.824c0,3.044-2.467,5.511-5.51,5.511h-55.369c-3.043,0-5.511-2.467-5.511-5.511l0,0
					c0-3.044,2.468-5.511,5.511-5.511h55.369C415.768,360.314,418.234,362.78,418.234,365.824L418.234,365.824z"/>
			</g>
		</g>
		<g>
			<g>
				<g>
					<path style="fill:#FC8B3F;" d="M132.644,407.672c-0.705,0-1.412-0.065-2.105-0.196c-7.609-1.438-12.315-10.464-10.492-20.125
						c1.654-8.755,7.964-15.109,15.005-15.109c0.705,0,1.412,0.065,2.104,0.196c7.61,1.438,12.316,10.466,10.493,20.125
						C145.995,401.317,139.684,407.672,132.644,407.672z M135.052,377.14c-4.612,0-8.994,4.782-10.191,11.122
						c-1.322,7.004,1.633,13.463,6.588,14.399c0.393,0.075,0.794,0.112,1.195,0.112c4.612,0,8.994-4.779,10.191-11.119
						c1.322-7.007-1.633-13.466-6.587-14.401C135.854,377.178,135.452,377.14,135.052,377.14z"/>
				</g>
				<g>
					<path style="fill:#FC8B3F;" d="M132.236,368.107H95.472c0,0-4.899,28.838,9.634,41.363h7.861h1.774h7.861
						C137.136,396.945,132.236,368.107,132.236,368.107z"/>
					<path style="opacity:0.1;fill:#114068;" d="M114.741,409.471h7.861c14.534-12.525,9.634-41.363,9.634-41.363h-9.779
						c-2.864,10.675-9.253,27.144-22.496,35.042c1.362,2.354,3.044,4.51,5.145,6.321h7.861H114.741z"/>
				</g>
			</g>
			<g>
				<path style="fill:#CEDDF4;" d="M108.142,365.085c0,0-5.025-3.353-3.807-7.919c1.219-4.568,7.122-12.846,1.809-18.427
					c0,0,8.547,4.568,5.806,11.117C109.208,356.405,105.858,359.147,108.142,365.085z"/>
				<path style="fill:#CEDDF4;" d="M121.183,358.753c0,0-5.025-3.353-3.807-7.919c1.219-4.568,7.122-12.847,1.809-18.427
					c0,0,8.547,4.569,5.805,11.118C122.249,350.071,118.898,352.815,121.183,358.753z"/>
			</g>
		</g>
	</g>
	<g>
		<path style="fill:#F46C0F;" d="M132.236,368.105c0,2.008-8.288,3.635-18.51,3.635c-10.222,0-18.51-1.627-18.51-3.635
			c0-2.006,8.288-3.633,18.51-3.633C123.948,364.473,132.236,366.1,132.236,368.105z"/>
		<path style="fill:#AF622E;" d="M97.713,369.923c3.201,1.084,9.166,1.817,16.013,1.817c6.848,0,12.812-0.733,16.013-1.817
			c-3.201-1.084-9.165-1.816-16.013-1.816C106.879,368.107,100.915,368.839,97.713,369.923z"/>
	</g>
	<g>
		<polygon style="fill:#E3EDFC;" points="308.014,97.644 304.98,87.375 301.945,97.644 292.561,100.871 301.945,104.099 
			304.98,114.366 308.014,104.099 317.399,100.871 		"/>
		<polygon style="fill:#FFFFFF;" points="322.972,210.9 320.914,203.938 318.855,210.9 312.492,213.089 318.855,215.279 
			320.914,222.24 322.972,215.279 329.335,213.089 		"/>
		<polygon style="fill:#FFFFFF;" points="354.692,201.009 353.62,197.376 352.546,201.009 349.226,202.15 352.546,203.292 
			353.62,206.926 354.692,203.292 358.013,202.15 		"/>
		<polygon style="fill:#E3EDFC;" points="420.34,250.441 418.235,243.321 416.131,250.441 409.623,252.679 416.131,254.916 
			418.235,262.037 420.34,254.916 426.847,252.679 		"/>
		<polygon style="fill:#FFFFFF;" points="376.177,279.816 373.797,271.76 371.415,279.816 364.054,282.346 371.415,284.88 
			373.797,292.933 376.177,284.88 383.537,282.346 		"/>
		<polygon style="fill:#FFFFFF;" points="321.987,273.251 320.914,269.618 319.841,273.251 316.52,274.394 319.841,275.536 
			320.914,279.169 321.987,275.536 325.308,274.394 		"/>
		<polygon style="fill:#E3EDFC;" points="396.519,150.148 395.313,146.072 394.108,150.148 390.384,151.43 394.108,152.71 
			395.313,156.786 396.519,152.71 400.243,151.43 		"/>
		<polygon style="fill:#E3EDFC;" points="165.188,77.433 163.985,73.356 162.779,77.433 159.054,78.714 162.779,79.994 
			163.985,84.071 165.188,79.994 168.914,78.714 		"/>
		<polygon style="fill:#E3EDFC;" points="359.602,83.792 357.499,76.672 355.395,83.792 348.886,86.03 355.395,88.269 
			357.499,95.388 359.602,88.269 366.11,86.03 		"/>
		<polygon style="fill:#E3EDFC;" points="205.193,98.346 203.09,91.225 200.985,98.346 194.477,100.584 200.985,102.822 
			203.09,109.942 205.193,102.822 211.701,100.584 		"/>
		<polygon style="fill:#E3EDFC;" points="108.33,108.661 107.126,104.585 105.921,108.661 102.196,109.942 105.921,111.222 
			107.126,115.298 108.33,111.222 112.055,109.942 		"/>
		<polygon style="fill:#E3EDFC;" points="69.279,189.892 66.246,179.623 63.21,189.892 53.825,193.119 63.21,196.347 
			66.246,206.614 69.279,196.347 78.663,193.119 		"/>
		<polygon style="fill:#FFFFFF;" points="185.95,174.753 182.639,163.547 179.325,174.753 169.084,178.274 179.325,181.799 
			182.639,193.002 185.95,181.799 196.19,178.274 		"/>
		<polygon style="fill:#FFFFFF;" points="97.274,240.69 95.217,233.728 93.157,240.69 86.794,242.88 93.157,245.069 95.217,252.03 
			97.274,245.069 103.638,242.88 		"/>
		<polygon style="fill:#FFFFFF;" points="175.409,273.251 174.335,269.618 173.262,273.251 169.941,274.394 173.262,275.536 
			174.335,279.169 175.409,275.536 178.729,274.394 		"/>
		<polygon style="fill:#FFFFFF;" points="149.106,321.913 147.049,314.95 144.99,321.913 138.626,324.1 144.99,326.291 
			147.049,333.252 149.106,326.291 155.469,324.1 		"/>
		<polygon style="fill:#E3EDFC;" points="53.075,308.828 50.971,301.706 48.867,308.828 42.357,311.067 48.867,313.305 
			50.971,320.424 53.075,313.305 59.581,311.067 		"/>
		<polygon style="fill:#E3EDFC;" points="60.829,340.225 59.625,336.147 58.419,340.225 54.695,341.505 58.419,342.785 
			59.625,346.861 60.829,342.785 64.553,341.505 		"/>
		<polygon style="fill:#E3EDFC;" points="451.136,331.012 449.032,323.893 446.928,331.012 440.419,333.252 446.928,335.488 
			449.032,342.61 451.136,335.488 457.643,333.252 		"/>
	</g>
</g>
</svg>
